<svg id="Ebene_1" data-name="Ebene 1" xmlns="http://www.w3.org/2000/svg" viewBox="0 0 137 76.35"><title>kickz-logo</title><polygon points="23.243 40.95 28.732 26.38 19.401 28.619 14.913 41.032 16.528 29.309 7.98 31.36 4.143 59.701 12.551 58.176 14.36 45.045 15.683 57.608 24.753 55.963 23.243 40.95" style="fill:#fff"/><path d="M32.706,56.7l-4.407.784c-1.823.324-2.64,1.244-2.973,3.6l-1.043,7.375c-.279,1.974.389,2.711,2.108,2.452l4.373-.661c1.855-.28,2.8-1.181,3.1-3.294l.387-2.681-4.305.7-.22,1.542c-.094.656-.3.993-.686,1.053s-.489-.227-.4-.882l.79-5.539c.093-.657.285-.995.673-1.062.416-.071.505.219.411.877l-.139.97,4.313-.725.256-1.776C35.31,56.95,34.657,56.356,32.706,56.7Z" transform="translate(-0.5 -0.325)" style="fill:#fff"/><path d="M43.521,53.17l10.533-1.906c4.544-.822,6.873-3.022,7.627-8.009l.958-6.341-10.567,2.17-.534,3.606c-.227,1.532-.723,2.335-1.659,2.517s-1.178-.474-.953-2l1.908-12.933c.227-1.537.691-2.349,1.633-2.563,1.01-.23,1.228.431,1,1.976l-.338,2.277,10.611-2.321.638-4.218c.892-5.9-.735-7.183-5.565-6.022L48.086,21.982c-4.363,1.049-6.3,3.294-7.093,8.738L38.531,47.737C37.874,52.276,39.449,53.907,43.521,53.17Z" transform="translate(-0.5 -0.325)" style="fill:#fff"/><path d="M44.054,54.685l-4.611.82a3.435,3.435,0,0,0-3.059,3.34L35.293,66.4c-.347,2.4.264,3.123,2.155,2.838l4.574-.691c2.025-.306,2.924-1.186,3.3-3.725l1.136-7.709C46.776,54.944,46.011,54.337,44.054,54.685Zm-2.285,4.363-.829,5.674c-.1.67-.282.994-.714,1.062-.4.063-.514-.214-.416-.882l.826-5.661c.1-.672.3-1.017.7-1.087S41.868,58.375,41.769,59.048Z" transform="translate(-0.5 -0.325)" style="fill:#fff"/><polygon points="35.199 54.068 39.565 23.78 29.99 26.078 25.788 55.775 35.199 54.068" style="fill:#fff"/><polygon points="54.149 58.237 53.73 52.641 47.939 53.67 45.899 67.473 49.921 66.864 51.06 59.219 51.628 66.606 54.226 66.213 57.113 58.216 55.947 65.953 60.157 65.316 62.313 51.117 56.304 52.184 54.149 58.237" style="fill:#fff"/><polygon points="116.294 12.499 117.524 5.071 95.729 10.302 94.489 18.069 102.082 16.348 90.778 37.009 89.632 44.196 111.708 40.192 113.025 32.235 104.353 33.924 116.294 12.499" style="fill:#fff"/><polygon points="114.731 39.65 124.481 37.882 125.887 29.575 116.091 31.485 114.731 39.65" style="fill:#fff"/><polygon points="93.914 10.737 81.981 13.601 76.26 27.762 78.317 14.48 67.454 17.087 62.592 49.1 73.256 47.166 75.557 32.307 77.242 46.443 88.819 44.343 86.887 27.408 93.914 10.737" style="fill:#fff"/><path d="M136.018,33.572l-5.7-6.342a7.077,7.077,0,0,0-5.328-1.308c-.1.02,2.148-3.753,2.148-3.753a9.523,9.523,0,0,0,1.589-3.453l.572-5.366a5.774,5.774,0,0,0-1.482-4.425L123.056,2.43A5.1,5.1,0,0,0,117.9.453C117.565.535,15.934,25.689,11.932,26.767c-4.457,1.2-7.032,2.383-7.557,6.685l-3.8,27.1C.028,64.712,2.437,65.207,7,65.2l13.411.684c-.641,4.61-1.671,9.277,3.487,10.174a28.907,28.907,0,0,0,7.223.543L67.759,72a5.92,5.92,0,0,0,2.9-1.217,6.837,6.837,0,0,0,1.693-3.767l.931-8.4,58.881-9.1a5.383,5.383,0,0,0,3.345-1.4,5.021,5.021,0,0,0,1.04-2.8l.915-6.574a9.7,9.7,0,0,0-.062-2.231A5.547,5.547,0,0,0,136.018,33.572ZM48.086,21.982,58.812,19.4c4.83-1.161,6.457.119,5.565,6.022l-.638,4.218L53.128,31.965l.338-2.277c.229-1.545.011-2.206-1-1.976-.941.214-1.406,1.026-1.633,2.563L48.926,43.208c-.225,1.524.021,2.179.953,2s1.431-.984,1.659-2.517l.534-3.606,10.567-2.17-.958,6.341c-.754,4.987-3.083,7.187-7.627,8.009L43.521,53.17c-4.072.737-5.647-.895-4.99-5.433L40.993,30.72C41.781,25.276,43.723,23.031,48.086,21.982ZM40.065,24.1,35.7,54.393,26.288,56.1l4.2-29.7ZM16.183,57.933,14.86,45.37,13.051,58.5,4.643,60.026,8.48,31.685l8.548-2.051L15.413,41.356,19.9,28.944l9.33-2.239-5.489,14.57,1.51,15.013Zm18.769,1.5L34.7,61.207l-4.313.725.139-.97c.094-.658,0-.948-.411-.877-.388.067-.58.4-.673,1.062l-.79,5.539c-.093.655.009.942.4.882s.592-.4.686-1.053l.22-1.542,4.305-.7-.387,2.681c-.3,2.113-1.248,3.013-3.1,3.294l-4.373.661c-1.718.26-2.387-.478-2.108-2.452l1.043-7.375c.333-2.351,1.15-3.271,2.973-3.6l4.407-.784C34.657,56.356,35.31,56.95,34.952,59.431Zm7.07,9.114-4.574.691c-1.892.286-2.5-.433-2.155-2.838l1.092-7.553a3.435,3.435,0,0,1,3.059-3.34l4.611-.82c1.957-.348,2.722.259,2.4,2.425l-1.136,7.709C44.947,67.359,44.047,68.239,42.022,68.545Zm18.635-2.9-4.21.637,1.166-7.737-2.887,8-2.6.393-.568-7.387-1.139,7.645L46.4,67.8l2.04-13.8,5.791-1.029.419,5.6L56.8,52.509l6.009-1.067ZM77.742,46.768,76.057,32.631l-2.3,14.859L63.092,49.425l4.861-32.013,10.864-2.607L76.76,28.087l5.72-14.161,11.934-2.864L87.387,27.733l1.931,16.935Zm34.466-6.251-22.076,4,1.146-7.187,11.3-20.661-7.593,1.721,1.24-7.767,21.8-5.231-1.23,7.428L104.853,34.248l8.672-1.689Zm12.773-2.31-9.75,1.768,1.359-8.164,9.8-1.91Z" transform="translate(-0.5 -0.325)"/><path d="M41.339,58.155c-.405.07-.606.415-.7,1.087L39.81,64.9c-.1.669.012.946.416.882.433-.068.616-.392.714-1.062l.829-5.674C41.868,58.375,41.746,58.085,41.339,58.155Z" transform="translate(-0.5 -0.325)"/></svg>